<?xml version="1.0" encoding="utf-8"?>
<!-- Generator: Adobe Illustrator 19.2.0, SVG Export Plug-In . SVG Version: 6.00 Build 0)  -->
<svg version="1.1" id="content" xmlns="http://www.w3.org/2000/svg" xmlns:xlink="http://www.w3.org/1999/xlink" x="0px" y="0px"
	 viewBox="0 0 32 32" style="enable-background:new 0 0 32 32;" xml:space="preserve">
<style type="text/css">
	.st0{fill:#FFFBF5;}
</style>
<title>ie_proto-comp</title>
<g>
	<g>
		<g>
			<path class="st0" d="M16,9.1c3.8,0,6.9,3.1,6.9,6.9s-3.1,6.9-6.9,6.9S9.1,19.8,9.1,16l0,0C9.1,12.2,12.2,9.1,16,9.1 M16,8
				c-4.4,0-8,3.6-8,8s3.6,8,8,8s8-3.6,8-8S20.4,8,16,8L16,8z"/>
			<path class="st0" d="M18,18.6c-0.2,0-0.3-0.1-0.4-0.2l-2-2.1c-0.1-0.1-0.2-0.2-0.2-0.4v-3.5c0-0.3,0.3-0.6,0.6-0.6
				c0.3,0,0.6,0.3,0.6,0.6v3.3l1.9,1.9c0.2,0.2,0.2,0.6,0,0.8C18.4,18.6,18.2,18.6,18,18.6z"/>
		</g>
	</g>
</g>
</svg>
