<?xml version="1.0" encoding="utf-8"?>
<!-- Generator: Adobe Illustrator 19.2.0, SVG Export Plug-In . SVG Version: 6.00 Build 0)  -->
<svg version="1.1" id="content" xmlns="http://www.w3.org/2000/svg" xmlns:xlink="http://www.w3.org/1999/xlink" x="0px" y="0px"
	 viewBox="0 0 32 32" style="enable-background:new 0 0 32 32;" xml:space="preserve">
<style type="text/css">
	.st0{fill:#FFFBF5;}
</style>
<title>ie_proto-comp</title>
<g>
	<g>
		<g>
			<polygon class="st0" points="24.7,24.7 10.5,24.7 10.5,22.5 11.5,22.5 11.5,23.7 23.7,23.7 23.7,14.7 22.5,14.7 22.5,13.7 
				23.7,13.7 23.7,11.5 22.5,11.5 22.5,10.5 24.7,10.5 			"/>
			<path class="st0" d="M21.5,21.5H7.3V7.3h14.2L21.5,21.5L21.5,21.5z M8.3,20.5h12.2V8.3H8.3L8.3,20.5L8.3,20.5z"/>
			<g>
				<path class="st0" d="M9.9,10.5H7.8v1h1.6C9.5,11.1,9.7,10.8,9.9,10.5z"/>
				<path class="st0" d="M18.9,10.5c0.3,0.3,0.5,0.6,0.6,1H21v-1H18.9z"/>
			</g>
		</g>
		<path class="st0" d="M18,11c-0.8-0.8-2-0.8-2.8-0.1c0,0,0,0-0.1,0.1l-0.7,0.7L13.6,11c-0.8-0.8-2.1-0.8-2.9,0s-0.8,2.1,0,2.9l0,0
			l3.6,3.6l3.6-3.6C18.8,13.1,18.8,11.9,18,11C18,11,18,11,18,11z"/>
	</g>
</g>
</svg>
