<?xml version="1.0" encoding="utf-8"?>
<!-- Generator: Adobe Illustrator 19.2.0, SVG Export Plug-In . SVG Version: 6.00 Build 0)  -->
<svg version="1.1" id="content" xmlns="http://www.w3.org/2000/svg" xmlns:xlink="http://www.w3.org/1999/xlink" x="0px" y="0px"
	 viewBox="0 0 38 32" style="enable-background:new 0 0 38 32;" xml:space="preserve">
<style type="text/css">
	.st0{fill:#FFFBF5;}
</style>
<title>ie_proto-comp</title>
<g>
	<g>
		<g>
			<path class="st0" d="M25.6,18.3c-1.3,0-2.3-1-2.3-2.3s1-2.3,2.3-2.3c1.3,0,2.3,1,2.3,2.3c0,0,0,0,0,0
				C27.9,17.3,26.9,18.3,25.6,18.3z M25.6,14.7c-0.7,0-1.3,0.6-1.3,1.3c0,0.7,0.6,1.3,1.3,1.3s1.3-0.6,1.3-1.3l0,0
				C26.9,15.3,26.3,14.7,25.6,14.7L25.6,14.7z"/>
			<path class="st0" d="M19,18.3c-1.3,0-2.3-1-2.3-2.3s1-2.3,2.3-2.3c1.3,0,2.3,1,2.3,2.3c0,0,0,0,0,0C21.3,17.3,20.3,18.3,19,18.3z
				 M19,14.7c-0.7,0-1.3,0.6-1.3,1.3c0,0.7,0.6,1.3,1.3,1.3c0.7,0,1.3-0.6,1.3-1.3C20.3,15.3,19.7,14.7,19,14.7L19,14.7z"/>
			<path class="st0" d="M12.4,18.3c-1.3,0-2.3-1-2.3-2.3c0-1.3,1-2.3,2.3-2.3c1.3,0,2.3,1,2.3,2.3C14.7,17.3,13.7,18.3,12.4,18.3z
				 M12.4,14.7c-0.7,0-1.3,0.6-1.3,1.3c0,0.7,0.6,1.3,1.3,1.3s1.3-0.6,1.3-1.3C13.7,15.3,13.1,14.7,12.4,14.7L12.4,14.7z"/>
		</g>
	</g>
</g>
</svg>
