<svg id="content" xmlns="http://www.w3.org/2000/svg" viewBox="0 0 40 32">
  <defs>
    <style>
      .cls-1 {
        fill: #fffbf5;
      }
    </style>
  </defs>
  <title>partly-cloudy</title>
  <g>
    <g>
      <path class="cls-1" d="M17.59,29.67a1.66,1.66,0,0,0,.71.46,1.62,1.62,0,0,0,.51.08,2.3,2.3,0,0,0,1.36-.54H17.59Z"/>
      <path class="cls-1" d="M38.5,15.46c0-1.36-1.48-2-2.91-2.67A7.87,7.87,0,0,1,34,11.91a7.63,7.63,0,0,1,.83-1.75c0.76-1.33,1.54-2.71.77-3.78s-2.34-.75-3.86-0.44a7.85,7.85,0,0,1-1.9.25,7.77,7.77,0,0,1-.34-1.86C29.29,2.79,29.12,1.2,27.84.78s-2.3.76-3.32,1.88A8.61,8.61,0,0,1,23.11,4a6.43,6.43,0,0,1-1.48-1.37c-1-1.12-2.08-2.29-3.32-1.88s-1.45,2-1.62,3.56a7.77,7.77,0,0,1-.34,1.86,7.87,7.87,0,0,1-1.9-.25c-1.51-.31-3.07-0.64-3.86.44s0,2.45.77,3.78a7.61,7.61,0,0,1,.83,1.75,7.82,7.82,0,0,1-1.64.88,6.83,6.83,0,0,0-2.48,1.55,9.48,9.48,0,0,1,3-.49,9.6,9.6,0,0,1,1.59.15,2.79,2.79,0,0,0,1.46-1.46c0.33-1-.32-2.16-1-3.37a11.07,11.07,0,0,1-.78-1.54h0A11,11,0,0,1,14,7.91c1.35,0.28,2.63.55,3.49-.08s1-1.91,1.14-3.27A10.82,10.82,0,0,1,19,2.82,11.22,11.22,0,0,1,20.15,4C21.09,5,22,6,23.07,6s2-1,2.92-2a11.23,11.23,0,0,1,1.2-1.19,10.71,10.71,0,0,1,.28,1.74c0.15,1.36.29,2.65,1.14,3.27s2.14,0.36,3.49.08a10.91,10.91,0,0,1,1.72-.27h0A11.08,11.08,0,0,1,33,9.18c-0.69,1.21-1.34,2.35-1,3.37s1.49,1.51,2.73,2.07a9.94,9.94,0,0,1,1.62.84,10,10,0,0,1-1.62.84c-1.24.56-2.41,1.08-2.73,2.07s0.32,2.16,1,3.36a11.08,11.08,0,0,1,.78,1.54h0A10.94,10.94,0,0,1,32.1,23c-0.51-.11-1-0.21-1.48-0.26A5,5,0,0,1,31,24.49v0.16c0,0.06,0,.11,0,0.16L31.7,25c1.51,0.31,3.07.64,3.86-.44s0-2.45-.77-3.78A7.63,7.63,0,0,1,34,19a7.88,7.88,0,0,1,1.64-.88C37,17.48,38.5,16.82,38.5,15.46Z"/>
      <path class="cls-1" d="M26,29.66a2,2,0,0,0,1.88.48,2.2,2.2,0,0,0,1.34-1.77A5.12,5.12,0,0,1,26,29.66Z"/>
    </g>
    <path class="cls-1" d="M11.05,14.85a8.53,8.53,0,0,1,7.62,4.7,6.94,6.94,0,0,1,10.93,3.28A4.14,4.14,0,0,1,30,24.49c0,0.06,0,.11,0,0.17h0a4.19,4.19,0,0,1-4.18,4H6.7A4.17,4.17,0,0,1,2.54,24c0-.22,0-0.43,0-0.65a8.53,8.53,0,0,1,8.53-8.53m0-2A10.55,10.55,0,0,0,.52,23.39q0,0.32,0,.63c0,0.16,0,.32,0,0.47A6.19,6.19,0,0,0,6.7,30.67H25.77a6.16,6.16,0,0,0,6.14-5.52L32,25l0-.37s0-.08,0-0.13a6.12,6.12,0,0,0-.47-2.36,8.93,8.93,0,0,0-12.17-5.29,10.47,10.47,0,0,0-8.25-4h0Z"/>
  </g>
  <g id="_Group_" data-name="&lt;Group&gt;">
    <path class="cls-1" d="M30.91,15.46v0.22a7.78,7.78,0,0,1-1.59,4.49,8.12,8.12,0,0,0-1.43-1.44,5.81,5.81,0,0,0-4.65-9.1H23.07a5.85,5.85,0,0,0-5.83,5.67,5.26,5.26,0,0,0,.05.89,9.29,9.29,0,0,0-2-1.33A7.83,7.83,0,0,1,30.91,15.46Z"/>
  </g>
</svg>
