<?xml version="1.0" encoding="utf-8"?>
<!-- Generator: Adobe Illustrator 19.2.0, SVG Export Plug-In . SVG Version: 6.00 Build 0)  -->
<svg version="1.1" id="content" xmlns="http://www.w3.org/2000/svg" xmlns:xlink="http://www.w3.org/1999/xlink" x="0px" y="0px"
	 viewBox="0 0 32 32" style="enable-background:new 0 0 32 32;" xml:space="preserve">
<style type="text/css">
	.st0{fill:#FFFBF5;}
</style>
<title>ie_proto-comp</title>
<path class="st0" d="M31.9,13.9c0-1.4-1.7-4-2.3-4.8l-0.8-1.2L28,9c-0.5,0.8-1,1.6-1.4,2.4c-1.9-1.3-4.3-1.8-6.6-1.3
	c-0.3-0.5-0.5-0.9-0.7-1.1l-0.8-1.2L17.6,9l-0.4,0.6c-4-3.8-10.4-3.5-14.1,0.5c-1.7,1.8-2.7,4.3-2.7,6.8c0,0.2,0,0.4,0,0.6
	c0,0.1,0,0.3,0,0.5c0,3.2,2.6,5.9,5.9,5.9h14.3c0.4,1.6,2.1,2.6,3.8,2.2c1.2-0.3,2.2-1.4,2.3-2.7c1.9-0.8,3.3-2.7,3.5-4.8v-0.1v-0.3
	c0,0,0-0.1,0-0.1c0-0.4-0.1-0.8-0.1-1.3C31.2,16.2,31.9,15.1,31.9,13.9z M28.8,11.5c0.5,0.7,0.9,1.5,1.1,2.4c0,0.6-0.5,1.1-1.1,1.1
	c-0.6,0-1.1-0.5-1.1-1.1C27.9,13,28.3,12.2,28.8,11.5L28.8,11.5z M19.6,13.9c0,0.6-0.5,1.1-1.1,1.1s-1.1-0.5-1.1-1.1l0,0
	c0.2-0.9,0.6-1.7,1.1-2.4C19,12.2,19.3,13,19.6,13.9L19.6,13.9z M23.6,24.1c-0.6,0-1.1-0.5-1.1-1.1c0.2-0.9,0.6-1.7,1.1-2.4
	c0.5,0.7,0.9,1.5,1.1,2.4C24.7,23.6,24.2,24.1,23.6,24.1z M28.3,18.1L28.3,18.1c-0.1,1.4-0.8,2.6-2,3.3c-0.5-1.1-1.1-2.2-1.8-3.2
	l-0.8-1.2l-0.8,1.2c-0.8,1.2-1.5,2.4-2,3.8H6.3c-2.2,0-4-1.8-4-4c0-0.1,0-0.2,0-0.3c0-0.2,0-0.4,0-0.6c0-4.5,3.6-8.1,8-8.1
	c2.2,0,4.4,0.9,5.9,2.5c-0.5,0.8-0.8,1.6-0.9,2.5c0,1.7,1.4,3.1,3.1,3.1s3.1-1.4,3.1-3.1c-0.1-0.7-0.3-1.4-0.6-2
	c0.3,0,0.5-0.1,0.8-0.1c1.5,0,2.9,0.5,4,1.4c-0.1,0.2-0.1,0.4-0.1,0.6c0,1.5,1.1,2.7,2.5,3c0.1,0.3,0.1,0.7,0.1,1
	C28.3,17.9,28.3,17.9,28.3,18.1L28.3,18.1L28.3,18.1z"/>
</svg>
