<svg id="background" xmlns="http://www.w3.org/2000/svg" viewBox="0 0 32 32"><defs><style>.cls-1{fill:#fffbf5;}</style></defs><title>ie_proto-comp</title><path class="cls-1" d="M10.81,9.09a8.53,8.53,0,0,1,7.62,4.7,6.94,6.94,0,0,1,10.93,3.28,4.14,4.14,0,0,1,.34,1.65c0,0.06,0,.11,0,0.17h0a4.19,4.19,0,0,1-4.18,4H6.46A4.17,4.17,0,0,1,2.3,18.28c0-.22,0-0.43,0-0.65a8.53,8.53,0,0,1,8.53-8.53m0-2A10.55,10.55,0,0,0,.28,17.62q0,0.32,0,.63c0,0.16,0,.32,0,0.47a6.19,6.19,0,0,0,6.18,6.18H25.52a6.16,6.16,0,0,0,6.15-5.56l0.05-.13,0-.33c0-.05,0-0.11,0-0.16a6.11,6.11,0,0,0-.47-2.36,8.93,8.93,0,0,0-12.17-5.29,10.47,10.47,0,0,0-8.25-4h0Z"/></svg>