<?xml version="1.0" encoding="utf-8"?>
<!-- Generator: Adobe Illustrator 19.2.0, SVG Export Plug-In . SVG Version: 6.00 Build 0)  -->
<svg version="1.1" id="content" xmlns="http://www.w3.org/2000/svg" xmlns:xlink="http://www.w3.org/1999/xlink" x="0px" y="0px"
	 viewBox="0 0 32 32" style="enable-background:new 0 0 32 32;" xml:space="preserve">
<style type="text/css">
	.st0{fill:#FFFBF5;}
</style>
<title>ie_proto-comp</title>
<path class="st0" d="M10.8,9.1c3.2,0,6.2,1.8,7.6,4.7c3-2.4,7.4-1.9,9.8,1.1c0.5,0.7,0.9,1.4,1.2,2.2c0.2,0.5,0.3,1.1,0.3,1.6
	c0,0.1,0,0.1,0,0.2l0,0c-0.1,2.2-1.9,4-4.2,4H6.5c-2.3,0-4.2-1.9-4.2-4.2c0-0.2,0-0.3,0-0.5c0-0.2,0-0.4,0-0.6
	C2.3,12.9,6.1,9.1,10.8,9.1L10.8,9.1 M10.8,7.1C5,7.1,0.3,11.8,0.3,17.6c0,0.2,0,0.4,0,0.6c0,0.2,0,0.3,0,0.5c0,3.4,2.8,6.2,6.2,6.2
	h19.1c3.2,0,5.8-2.4,6.1-5.6l0-0.1v-0.3c0,0,0-0.1,0-0.2c0-0.8-0.2-1.6-0.5-2.4c-1.6-4.7-6.6-7.2-11.3-5.6c-0.3,0.1-0.6,0.2-0.9,0.3
	C17.1,8.5,14,7.1,10.8,7.1L10.8,7.1L10.8,7.1z"/>
</svg>
