<svg id="content" xmlns="http://www.w3.org/2000/svg" xmlns:xlink="http://www.w3.org/1999/xlink" viewBox="0 0 117 117"><defs><style>.cls-1,.cls-5{fill:none;}.cls-2{clip-path:url(#clip-path);}.cls-3{clip-path:url(#clip-path-2);}.cls-4{fill:#fffbf5;}.cls-5{stroke:#fffbf5;stroke-miterlimit:10;stroke-width:4.29px;}</style><clipPath id="clip-path"><rect class="cls-1" x="210.3" y="496.17" width="1050.16" height="635.8"/></clipPath><clipPath id="clip-path-2"><rect class="cls-1" x="-1.67" y="349.92" width="1450.75" height="846"/></clipPath></defs><title>ie_proto-comp</title><g class="cls-2"><g class="cls-3"><image width="2848" height="2848" transform="translate(-12.57 78.19) scale(0.52)" xlink:href="ie_proto-comp1.png"/></g></g><circle class="cls-4" cx="58.5" cy="58.5" r="14.66" transform="translate(-1.65 115.3) rotate(-88.36)"/><path class="cls-5" d="M89.43,58.5c0,2.87-8.82,4.32-9.66,6.91s5.38,9,3.76,11.27-9.63-1.74-11.89-.09-0.89,10.46-3.58,11.33-6.69-7.07-9.56-7.07-7,7.91-9.56,7.07-1.34-9.71-3.58-11.33-10.24,2.35-11.89.09,4.63-8.59,3.76-11.27-9.66-4-9.66-6.91,8.82-4.32,9.66-6.91-5.38-9-3.76-11.27,9.63,1.74,11.89.09,0.89-10.46,3.58-11.33,6.69,7.07,9.56,7.07,7-7.91,9.56-7.07,1.34,9.71,3.58,11.33,10.24-2.35,11.89-.09S78.9,48.9,79.77,51.59,89.43,55.63,89.43,58.5Z"/></svg>