<?xml version="1.0" encoding="utf-8"?>
<!-- Generator: Adobe Illustrator 19.2.0, SVG Export Plug-In . SVG Version: 6.00 Build 0)  -->
<svg version="1.1" id="content" xmlns="http://www.w3.org/2000/svg" xmlns:xlink="http://www.w3.org/1999/xlink" x="0px" y="0px"
	 viewBox="0 0 117 117" style="enable-background:new 0 0 117 117;" xml:space="preserve">
<style type="text/css">
	.st0{fill:#FFFBF5;}
</style>
<title>ie_proto-comp</title>
<g>
	<g>
		<g>
			
				<ellipse transform="matrix(2.861948e-002 -0.9996 0.9996 2.861948e-002 -1.6482 115.3003)" class="st0" cx="58.5" cy="58.5" rx="14.7" ry="14.7"/>
			<path class="st0" d="M67.6,90.1c-2.2,0-4.2-2.1-6-4.2c-0.9-1.1-2-2.1-3.1-2.9c-1.2,0.8-2.2,1.8-3.1,2.9c-2.2,2.4-4.5,4.9-7.1,4
				s-3.1-4.3-3.5-7.6c-0.1-1.4-0.3-2.7-0.7-4c-1.4,0-2.7,0.2-4.1,0.5c-3.2,0.7-6.6,1.4-8.3-0.9s0-5.3,1.6-8.1
				c0.8-1.2,1.3-2.4,1.8-3.8c-1.1-0.8-2.3-1.4-3.5-1.9c-3.1-1.4-6.2-2.8-6.2-5.7s3.2-4.3,6.2-5.7c1.3-0.5,2.4-1.1,3.5-1.9
				c-0.5-1.3-1.1-2.6-1.8-3.7c-1.6-2.9-3.3-5.8-1.6-8.1c1.7-2.3,5-1.6,8.3-0.9c1.3,0.3,2.7,0.5,4.1,0.5c0.4-1.3,0.6-2.6,0.7-4
				c0.4-3.3,0.7-6.7,3.5-7.6s4.9,1.6,7.1,4c0.9,1.2,1.9,2.2,3.1,3c1.2-0.8,2.2-1.8,3.1-2.9c2.2-2.4,4.5-4.9,7.1-4s3.1,4.3,3.5,7.6
				c0.1,1.4,0.3,2.7,0.7,4c1.4,0,2.8-0.2,4.1-0.6c3.2-0.7,6.6-1.4,8.3,0.9s0,5.3-1.6,8.1c-0.7,1.2-1.3,2.4-1.8,3.8
				c1.1,0.8,2.3,1.4,3.5,1.9c3.1,1.4,6.2,2.8,6.2,5.7s-3.2,4.3-6.2,5.7c-1.3,0.5-2.4,1.1-3.5,1.9c0.5,1.3,1.1,2.6,1.8,3.7
				c1.6,2.9,3.3,5.8,1.6,8.1s-5,1.6-8.3,0.9c-1.3-0.3-2.7-0.5-4.1-0.5c-0.4,1.3-0.6,2.6-0.7,4c-0.4,3.3-0.7,6.7-3.5,7.6
				C68.4,90.1,68,90.1,67.6,90.1z M58.5,78.7c2.3,0,4.2,2.1,6.3,4.3c0.8,0.9,1.6,1.8,2.6,2.6c0.3-1.2,0.5-2.5,0.6-3.7
				c0.3-2.9,0.6-5.7,2.4-7s4.6-0.8,7.5-0.2c1.2,0.3,2.4,0.5,3.7,0.6l0,0c-0.5-1.1-1-2.2-1.6-3.3c-1.5-2.6-2.9-5-2.2-7.2
				s3.2-3.3,5.9-4.4c1.2-0.5,2.4-1.1,3.5-1.8c-1.1-0.7-2.3-1.3-3.5-1.8c-2.7-1.2-5.2-2.3-5.8-4.4s0.7-4.6,2.2-7.2
				c0.6-1.1,1.2-2.2,1.7-3.3l0,0c-1.2,0.1-2.5,0.3-3.7,0.6c-2.9,0.6-5.6,1.2-7.5-0.2s-2.1-4.1-2.4-7c-0.1-1.3-0.3-2.5-0.6-3.7
				c-0.9,0.8-1.8,1.6-2.6,2.6c-2,2.2-3.9,4.3-6.3,4.3s-4.2-2.1-6.3-4.3c-0.8-0.9-1.6-1.8-2.6-2.6c-0.3,1.2-0.5,2.5-0.6,3.7
				c-0.3,2.9-0.6,5.7-2.4,7s-4.6,0.8-7.5,0.2c-1.2-0.3-2.4-0.5-3.7-0.6c0.5,1.1,1,2.2,1.7,3.2c1.5,2.6,2.9,5,2.2,7.2
				s-3.2,3.3-5.9,4.4c-1.2,0.5-2.4,1.1-3.5,1.8c1.1,0.7,2.3,1.3,3.5,1.8c2.7,1.2,5.2,2.3,5.9,4.4c0.7,2.1-0.7,4.7-2.2,7.3
				c-0.6,1.1-1.2,2.2-1.7,3.3l0,0c1.2-0.1,2.5-0.3,3.7-0.6c2.9-0.6,5.6-1.2,7.5,0.2s2.1,4.1,2.4,7c0.1,1.3,0.3,2.5,0.6,3.7
				c0.9-0.8,1.8-1.7,2.6-2.6C54.3,80.8,56.2,78.7,58.5,78.7z"/>
		</g>
	</g>
</g>
</svg>
