<?xml version="1.0" encoding="utf-8"?>
<!-- Generator: Adobe Illustrator 19.2.0, SVG Export Plug-In . SVG Version: 6.00 Build 0)  -->
<svg version="1.1" id="content" xmlns="http://www.w3.org/2000/svg" xmlns:xlink="http://www.w3.org/1999/xlink" x="0px" y="0px"
	 viewBox="0 0 50 50" style="enable-background:new 0 0 50 50;" xml:space="preserve">
<style type="text/css">
	.st0{fill:#FFFFFF;}
</style>
<title>ie_proto-comp</title>
<g>
	<g>
		<g>
			<path class="st0" d="M27.6,34.8l-14-14c-0.4-0.4-0.4-1.1,0-1.6l3.3-3.3c0.4-0.4,1.1-0.4,1.6,0l14,14l-0.7,0.7l-14-14
				c0,0-0.1-0.1-0.2,0l-3.3,3.3c0,0,0,0.1,0,0.2l14,14L27.6,34.8z"/>
		</g>
		<g>
			<rect x="14.7" y="19.5" transform="matrix(0.7071 -0.7071 0.7071 0.7071 -8.9723 18.3256)" class="st0" width="5.8" height="1"/>
		</g>
		<g>
			<rect x="16.1" y="20.8" transform="matrix(0.7071 -0.7071 0.7071 0.7071 -9.5281 19.6678)" class="st0" width="5.8" height="1"/>
		</g>
		<g>
			
				<rect x="16.9" y="20.7" transform="matrix(0.7071 -0.7071 0.7071 0.7071 -10.1977 18.6044)" class="st0" width="1" height="1.9"/>
		</g>
		<g>
			<rect x="19.4" y="18.1" transform="matrix(0.707 -0.7072 0.7072 0.707 -7.6711 19.6558)" class="st0" width="1" height="1.9"/>
		</g>
		<g>
			<path class="st0" d="M32.4,36.1C32.4,36.1,32.4,36.1,32.4,36.1l-4.7-1.2L26.8,34l0.4-0.4c0.4-0.4,0.8-0.4,1.1-0.4
				c0.2,0,0.3,0,0.4-0.1s0.1-0.2,0.1-0.4c0-0.3,0-0.7,0.4-1.1c0.4-0.4,0.8-0.4,1.1-0.4c0.2,0,0.3,0,0.4-0.1c0.1-0.1,0.1-0.2,0.1-0.4
				c0-0.3,0-0.7,0.4-1.1l0.4-0.4l0.9,0.9l1.2,4.5c0,0.5-0.1,0.9-0.4,1.1C33.1,36,32.8,36.1,32.4,36.1z M28.7,34.1l3.8,1
				c0,0,0.1-0.1,0.2-0.1s0.1-0.1,0.1-0.3l-1-3.7c-0.1,0.2-0.2,0.4-0.4,0.6c-0.4,0.4-0.8,0.4-1.1,0.4c-0.2,0-0.3,0-0.4,0.1
				c-0.1,0.1-0.1,0.2-0.1,0.4c0,0.3,0,0.7-0.4,1.1C29.2,34,28.9,34.1,28.7,34.1z"/>
		</g>
		<g>
			<path class="st0" d="M31.7,35.5l-1-0.3c0.5-1.6,2-2.1,2.1-2.1l0.3,1L33,33.6l0.1,0.5C33.1,34.1,32,34.4,31.7,35.5z"/>
		</g>
	</g>
	<g>
		<polygon class="st0" points="35,27 32,27 32,26 34,26 34,17 24,17 24,18 23,18 23,16 35,16 		"/>
	</g>
	<g>
		<polygon class="st0" points="37,25 35,25 35,24 36,24 36,15 26,15 26,16 25,16 25,14 37,14 		"/>
	</g>
	<g>
		<rect x="23" y="18" class="st0" width="11" height="1"/>
	</g>
	<g>
		<rect x="26" y="16" class="st0" width="10" height="1"/>
	</g>
</g>
</svg>
