<?xml version="1.0" encoding="utf-8"?>
<!-- Generator: Adobe Illustrator 19.2.0, SVG Export Plug-In . SVG Version: 6.00 Build 0)  -->
<svg version="1.1" id="content" xmlns="http://www.w3.org/2000/svg" xmlns:xlink="http://www.w3.org/1999/xlink" x="0px" y="0px"
	 viewBox="0 0 50 50" style="enable-background:new 0 0 50 50;" xml:space="preserve">
<style type="text/css">
	.st0{fill:#FFFFFF;}
</style>
<title>ie_proto-comp</title>
<g>
	<g>
		<g>
			<g>
				<path class="st0" d="M36.2,34.1c-1.1,0-2.1-0.9-2.1-2c0-1.1,0.9-2.1,2-2.1c1.1,0,2.1,0.9,2.1,2c0,0,0,0,0,0
					C38.2,33.1,37.3,34.1,36.2,34.1z M36.2,30.9c-0.6,0-1.1,0.5-1.1,1c0,0.6,0.5,1.1,1,1.1c0.6,0,1.1-0.5,1.1-1c0,0,0,0,0,0
					C37.2,31.4,36.8,31,36.2,30.9L36.2,30.9z"/>
				<path class="st0" d="M30.5,34.1c-1.1,0-2.1-0.9-2.1-2.1c0-1.1,0.9-2.1,2.1-2.1c1.1,0,2.1,0.9,2.1,2.1
					C32.5,33.1,31.6,34.1,30.5,34.1L30.5,34.1z M30.5,30.9c-0.6,0-1.1,0.5-1.1,1.1c0,0.6,0.5,1.1,1.1,1.1c0.6,0,1.1-0.5,1.1-1.1l0,0
					C31.5,31.4,31,30.9,30.5,30.9L30.5,30.9z"/>
				<path class="st0" d="M24.8,34.1c-1.1,0-2.1-0.9-2.1-2c0-1.1,0.9-2.1,2-2.1c1.1,0,2.1,0.9,2.1,2c0,0,0,0,0,0
					C26.8,33.1,25.9,34.1,24.8,34.1z M24.8,30.9c-0.6,0-1.1,0.5-1.1,1c0,0.6,0.5,1.1,1,1.1c0.6,0,1.1-0.5,1.1-1c0,0,0,0,0,0
					C25.8,31.4,25.3,31,24.8,30.9L24.8,30.9z"/>
			</g>
			<path class="st0" d="M24.2,16.9c0.5,0,1,0.1,1.4,0.2l-3,3l0.5,2.2l2.2,0.5l3-3c0.8,2.3-0.4,4.8-2.7,5.6c-1,0.4-2.2,0.3-3.2-0.1
				l-7,7c-0.6,0.6-1.6,0.6-2.2,0c-0.6-0.6-0.6-1.6,0-2.2l7-7c-1-2.2,0-4.8,2.2-5.8C23,17.1,23.6,16.9,24.2,16.9 M14.4,31.8
				c0.4,0,0.6-0.3,0.6-0.6c0-0.4-0.3-0.6-0.6-0.6c-0.4,0-0.6,0.3-0.6,0.6c0,0.2,0.1,0.3,0.2,0.5C14,31.7,14.2,31.8,14.4,31.8
				 M24.2,15.9L24.2,15.9c-1.4,0-2.8,0.6-3.8,1.6c-1.4,1.4-1.9,3.4-1.4,5.3l-6.5,6.5c-1,1-1,2.6,0,3.6c1,1,2.6,1,3.6,0l0,0l6.5-6.5
				c2.9,0.8,5.8-0.8,6.7-3.7c0.3-1.1,0.3-2.2-0.1-3.3L28.8,18l-1.1,1.1L25,21.8l-1-0.2l-0.2-1l2.6-2.6l1.1-1.1L26,16.2
				C25.4,16,24.8,15.9,24.2,15.9L24.2,15.9L24.2,15.9z"/>
		</g>
	</g>
</g>
</svg>
