<svg id="content" xmlns="http://www.w3.org/2000/svg" xmlns:xlink="http://www.w3.org/1999/xlink" viewBox="0 0 50 50"><defs><style>.cls-1{fill:none;}.cls-2{clip-path:url(#clip-path);}.cls-3{clip-path:url(#clip-path-2);}.cls-4{fill:#fff;}</style><clipPath id="clip-path"><rect class="cls-1" x="-115.58" y="338.36" width="1050.16" height="635.8"/></clipPath><clipPath id="clip-path-2"><rect class="cls-1" x="-327.54" y="192.1" width="1450.75" height="846"/></clipPath></defs><title>ie_proto-comp</title><g class="cls-2"><g class="cls-3"><image width="2848" height="2848" transform="translate(-338.44 -79.62) scale(0.52)" xlink:href="ie_proto-comp1.png"/></g></g><path class="cls-4" d="M27.41,34.59l-14-14a1.11,1.11,0,0,1,0-1.57l3.26-3.26a1.11,1.11,0,0,1,1.57,0l14,14-0.71.71-14-14a0.12,0.12,0,0,0-.16,0l-3.26,3.26a0.12,0.12,0,0,0,0,.16l14,14Z"/><rect class="cls-4" x="14.51" y="19.28" width="5.81" height="1" transform="translate(-8.89 18.11) rotate(-45)"/><rect class="cls-4" x="15.86" y="20.63" width="5.81" height="1" transform="translate(-9.44 19.45) rotate(-45)"/><rect class="cls-4" x="16.64" y="20.45" width="1" height="1.9" transform="translate(-10.11 18.39) rotate(-45)"/><rect class="cls-4" x="19.17" y="17.93" width="1" height="1.9" transform="translate(-7.59 19.44) rotate(-45.01)"/><path class="cls-4" d="M32.22,35.93h-0.1L27.5,34.68l-0.92-.92,0.35-.35A1.46,1.46,0,0,1,28,33a0.49,0.49,0,0,0,.42-0.13,0.5,0.5,0,0,0,.13-0.42,1.45,1.45,0,0,1,1.51-1.51,0.47,0.47,0,0,0,.55-0.55A1.46,1.46,0,0,1,31,29.3l0.35-.35,0.92,0.92,1.23,4.53a1.37,1.37,0,0,1-.37,1.14A1.34,1.34,0,0,1,32.22,35.93Zm-3.69-2,3.76,1a0.51,0.51,0,0,0,.17-0.12,0.34,0.34,0,0,0,.1-0.27l-1-3.67a1.35,1.35,0,0,1-.36.62,1.46,1.46,0,0,1-1.08.42,0.47,0.47,0,0,0-.55.55,1.46,1.46,0,0,1-.42,1.08A1.35,1.35,0,0,1,28.53,33.92Z"/><path class="cls-4" d="M31.49,35.26l-1-.3a3.23,3.23,0,0,1,2.08-2.07l0.27,1-0.13-.48,0.14,0.48A2.21,2.21,0,0,0,31.49,35.26Z"/><polygon class="cls-4" points="34.5 26.65 31.5 26.65 31.5 25.65 33.5 25.65 33.5 16.65 23.5 16.65 23.5 17.65 22.5 17.65 22.5 15.65 34.5 15.65 34.5 26.65"/><polygon class="cls-4" points="36.5 24.65 34.5 24.65 34.5 23.65 35.5 23.65 35.5 14.65 25.5 14.65 25.5 15.65 24.5 15.65 24.5 13.65 36.5 13.65 36.5 24.65"/><rect class="cls-4" x="22.5" y="17.65" width="11" height="1"/><rect class="cls-4" x="25.5" y="15.65" width="10" height="1"/></svg>