<svg id="content" xmlns="http://www.w3.org/2000/svg" xmlns:xlink="http://www.w3.org/1999/xlink" viewBox="0 0 32 32"><defs><style>.cls-1,.cls-4{fill:none;}.cls-2{clip-path:url(#clip-path);}.cls-3{clip-path:url(#clip-path-2);}.cls-4{stroke:#fffbf5;stroke-miterlimit:10;}.cls-5{fill:#fffbf5;}</style><clipPath id="clip-path"><rect class="cls-1" x="72.42" y="327.31" width="1050.16" height="635.8"/></clipPath><clipPath id="clip-path-2"><rect class="cls-1" x="-139.54" y="181.05" width="1450.75" height="846"/></clipPath></defs><title>ie_proto-comp</title><g class="cls-2"><g class="cls-3"><image width="2848" height="2848" transform="translate(-150.44 -90.67) scale(0.52)" xlink:href="ie_proto-comp1.png"/></g></g><path class="cls-4" d="M22.52,11h1.7v13.2H11V22.49m11.5-8.27h1.7"/><rect class="cls-4" x="7.77" y="7.77" width="13.2" height="13.2"/><path class="cls-5" d="M9.91,10.47H7.77v1H9.33A3,3,0,0,1,9.91,10.47Z"/><path class="cls-5" d="M18.85,10.47a3,3,0,0,1,.58,1H21v-1H18.85Z"/><path class="cls-5" d="M18,11a2,2,0,0,0-2.89,0l-0.73.73L13.65,11a2,2,0,0,0-2.89,2.89l3.62,3.62L18,13.9A2,2,0,0,0,18,11Z"/></svg>