<svg id="content" xmlns="http://www.w3.org/2000/svg" xmlns:xlink="http://www.w3.org/1999/xlink" viewBox="0 0 50 50"><defs><style>.cls-1{fill:none;}.cls-2{clip-path:url(#clip-path);}.cls-3{clip-path:url(#clip-path-2);}.cls-4{opacity:0.3;}.cls-5{fill:#fffbf5;}</style><clipPath id="clip-path"><rect class="cls-1" x="-6.88" y="338.36" width="1050.16" height="635.8"/></clipPath><clipPath id="clip-path-2"><rect class="cls-1" x="-218.84" y="192.1" width="1450.75" height="846"/></clipPath></defs><title>ie_proto-comp</title><g class="cls-2"><g class="cls-3"><image width="2848" height="2848" transform="translate(-229.75 -79.62) scale(0.52)" xlink:href="ie_proto-comp1.png"/></g></g><g class="cls-4"><path class="cls-5" d="M26,22.83a14.73,14.73,0,0,0,1.44,3.26,28.41,28.41,0,0,0,3.4-2.47l1.07,1a0.49,0.49,0,0,1-.37.07A35.06,35.06,0,0,1,28,27a9.92,9.92,0,0,0,5,3.73,5,5,0,0,0-.79,1c-3.59-1.31-5.9-4.53-7.14-8.52a14.51,14.51,0,0,1-1.93,1.21,7.43,7.43,0,0,1,3.45,5.74,2.82,2.82,0,0,1-3,3c-0.44,0-1,0-1.58-.05a2.7,2.7,0,0,0-.31-1.1c0.65,0.05,1.26.07,1.65,0.07a1.9,1.9,0,0,0,1.29-.33A2,2,0,0,0,25.42,30a4.42,4.42,0,0,0-.33-1.61,24.18,24.18,0,0,1-7.47,4.17,4.35,4.35,0,0,0-.63-1,20,20,0,0,0,7.65-4.11,7.68,7.68,0,0,0-.82-1.09,24.91,24.91,0,0,1-5.71,3,4.55,4.55,0,0,0-.63-0.93,20.62,20.62,0,0,0,5.69-2.73,12.51,12.51,0,0,0-1-.81,28.5,28.5,0,0,1-4.06,1.51,9.84,9.84,0,0,0-.59-0.89,21,21,0,0,0,6.32-2.64H19.68v-1h10v1H26ZM18.59,20v2.36H17.46V18.91h6.67V16.84l1.56,0.1a0.32,0.32,0,0,1-.35.23v1.73h6.77v3.45H30.92V20H18.59Z"/></g></svg>