<svg id="content" xmlns="http://www.w3.org/2000/svg" xmlns:xlink="http://www.w3.org/1999/xlink" viewBox="0 0 32 32"><defs><style>.cls-1{fill:none;}.cls-2{clip-path:url(#clip-path);}.cls-3{clip-path:url(#clip-path-2);}.cls-4{fill:#fffbf5;}</style><clipPath id="clip-path"><rect class="cls-1" x="151.21" y="241.51" width="1050.16" height="635.8"/></clipPath><clipPath id="clip-path-2"><rect class="cls-1" x="-60.75" y="95.25" width="1450.75" height="846"/></clipPath></defs><title>ie_proto-comp</title><g class="cls-2"><g class="cls-3"><image width="2848" height="2848" transform="translate(-71.65 -176.47) scale(0.52)" xlink:href="ie_proto-comp1.png"/></g></g><polygon class="cls-4" points="24.5 24.5 7.5 24.5 7.5 14.19 9.88 14.19 9.88 15.19 8.5 15.19 8.5 23.5 23.5 23.5 23.5 15.19 22.12 15.19 22.12 14.19 24.5 14.19 24.5 24.5"/><polygon class="cls-4" points="16 20.66 7.72 15.11 8.28 14.28 16 19.46 23.72 14.28 24.28 15.11 16 20.66"/><polygon class="cls-4" points="16 20.66 7.72 15.11 8.28 14.28 16 19.46 23.72 14.28 24.28 15.11 16 20.66"/><rect class="cls-4" x="6.8" y="20.67" width="7.85" height="1" transform="translate(-11.96 14.19) rotate(-46.03)"/><rect class="cls-4" x="20.78" y="17.25" width="1" height="7.85" transform="translate(-8.74 20.7) rotate(-43.95)"/><rect class="cls-4" x="22.67" y="13.21" width="1" height="1.94" transform="translate(-1.05 26.48) rotate(-58.38)"/><rect class="cls-4" x="7.81" y="13.56" width="2.26" height="1" transform="translate(-6.32 7.36) rotate(-33.85)"/><polygon class="cls-4" points="10.38 15.93 9.38 15.93 9.38 7.5 22.9 7.5 22.9 15.8 21.9 15.8 21.9 8.5 10.38 8.5 10.38 15.93"/><rect class="cls-4" x="11.62" y="10.35" width="2.64" height="1"/><rect class="cls-4" x="15.79" y="10.35" width="4.36" height="1"/><rect class="cls-4" x="15.02" y="12.56" width="5.13" height="1"/><rect class="cls-4" x="11.62" y="12.56" width="1.83" height="1"/><rect class="cls-4" x="11.59" y="14.93" width="8.53" height="1"/></svg>