<?xml version="1.0" encoding="utf-8"?>
<!-- Generator: Adobe Illustrator 19.2.0, SVG Export Plug-In . SVG Version: 6.00 Build 0)  -->
<svg version="1.1" id="content" xmlns="http://www.w3.org/2000/svg" xmlns:xlink="http://www.w3.org/1999/xlink" x="0px" y="0px"
	 viewBox="0 0 32 32" style="enable-background:new 0 0 32 32;" xml:space="preserve">
<style type="text/css">
	.st0{fill:#FFFBF5;}
</style>
<title>ie_proto-comp</title>
<g>
	<g>
		<g>
			<g>
				<polygon class="st0" points="24.5,24.5 7.5,24.5 7.5,14.2 9.9,14.2 9.9,15.2 8.5,15.2 8.5,23.5 23.5,23.5 23.5,15.2 22.1,15.2 
					22.1,14.2 24.5,14.2 				"/>
				<polygon class="st0" points="16,20.7 7.7,15.1 8.3,14.3 16,19.5 23.7,14.3 24.3,15.1 				"/>
				<polygon class="st0" points="16,20.7 7.7,15.1 8.3,14.3 16,19.5 23.7,14.3 24.3,15.1 				"/>
				
					<rect x="6.8" y="20.7" transform="matrix(0.6943 -0.7197 0.7197 0.6943 -11.9575 14.1887)" class="st0" width="7.8" height="1"/>
				<rect x="20.8" y="17.3" transform="matrix(0.7199 -0.694 0.694 0.7199 -8.7381 20.697)" class="st0" width="1" height="7.9"/>
				<rect x="22.7" y="13.2" transform="matrix(0.5243 -0.8515 0.8515 0.5243 -1.0548 26.48)" class="st0" width="1" height="1.9"/>
				<rect x="7.8" y="13.6" transform="matrix(0.8305 -0.557 0.557 0.8305 -6.3153 7.3604)" class="st0" width="2.3" height="1"/>
				<polygon class="st0" points="10.4,15.9 9.4,15.9 9.4,7.5 22.9,7.5 22.9,15.8 21.9,15.8 21.9,8.5 10.4,8.5 				"/>
			</g>
			<rect x="11.6" y="10.4" class="st0" width="2.6" height="1"/>
			<rect x="15.8" y="10.4" class="st0" width="4.4" height="1"/>
			<rect x="15" y="12.6" class="st0" width="5.1" height="1"/>
			<rect x="11.6" y="12.6" class="st0" width="1.8" height="1"/>
			<rect x="11.6" y="14.9" class="st0" width="8.5" height="1"/>
		</g>
	</g>
</g>
</svg>
