<svg id="content" xmlns="http://www.w3.org/2000/svg" xmlns:xlink="http://www.w3.org/1999/xlink" viewBox="0 0 117 117"><defs><style>.cls-1{fill:none;}.cls-2{clip-path:url(#clip-path);}.cls-3{clip-path:url(#clip-path-2);}.cls-4{fill:#fffbf5;}</style><clipPath id="clip-path"><rect class="cls-1" x="210.3" y="367.51" width="1050.16" height="635.8"/></clipPath><clipPath id="clip-path-2"><rect class="cls-1" x="-1.67" y="221.25" width="1450.75" height="846"/></clipPath></defs><title>ie_proto-comp</title><g class="cls-2"><g class="cls-3"><image width="2848" height="2848" transform="translate(-12.57 -50.47) scale(0.52)" xlink:href="ie_proto-comp1.png"/></g></g><path class="cls-4" d="M66.25,72.61A24.72,24.72,0,0,1,41.36,48.14a24.43,24.43,0,0,1,1.87-9.45,1.8,1.8,0,0,0-2.43-2.31A24.52,24.52,0,1,0,68.07,76.46a2.23,2.23,0,0,0-1.58-3.85H66.25Z"/><path class="cls-4" d="M89.63,38.64a3.8,3.8,0,0,0-2.72,2.72,0.75,0.75,0,0,1-1.43,0,3.8,3.8,0,0,0-2.72-2.72,0.75,0.75,0,0,1,0-1.43,3.8,3.8,0,0,0,2.72-2.72,0.75,0.75,0,0,1,1.43,0,3.8,3.8,0,0,0,2.72,2.72A0.75,0.75,0,0,1,89.63,38.64Z"/><path class="cls-4" d="M89.63,38.64a3.8,3.8,0,0,0-2.72,2.72,0.75,0.75,0,0,1-1.43,0,3.8,3.8,0,0,0-2.72-2.72,0.75,0.75,0,0,1,0-1.43,3.8,3.8,0,0,0,2.72-2.72,0.75,0.75,0,0,1,1.43,0,3.8,3.8,0,0,0,2.72,2.72A0.75,0.75,0,0,1,89.63,38.64Z"/><path class="cls-4" d="M62.63,42.34a5.06,5.06,0,0,0-4.1,4.1,0.77,0.77,0,0,1-1.48,0,5.06,5.06,0,0,0-4.1-4.1,0.77,0.77,0,0,1,0-1.48,5.06,5.06,0,0,0,4.1-4.1,0.77,0.77,0,0,1,1.48,0,5.06,5.06,0,0,0,4.1,4.1A0.77,0.77,0,0,1,62.63,42.34Z"/><path class="cls-4" d="M62.63,42.34a5.06,5.06,0,0,0-4.1,4.1,0.77,0.77,0,0,1-1.48,0,5.06,5.06,0,0,0-4.1-4.1,0.77,0.77,0,0,1,0-1.48,5.06,5.06,0,0,0,4.1-4.1,0.77,0.77,0,0,1,1.48,0,5.06,5.06,0,0,0,4.1,4.1A0.77,0.77,0,0,1,62.63,42.34Z"/><path class="cls-4" d="M80.21,60.14a3.18,3.18,0,0,0-2.39,2.39,0.58,0.58,0,0,1-1.1,0,3.18,3.18,0,0,0-2.39-2.39,0.58,0.58,0,0,1,0-1.1,3.18,3.18,0,0,0,2.39-2.39,0.58,0.58,0,0,1,1.1,0A3.18,3.18,0,0,0,80.21,59,0.58,0.58,0,0,1,80.21,60.14Z"/><path class="cls-4" d="M80.21,60.14a3.18,3.18,0,0,0-2.39,2.39,0.58,0.58,0,0,1-1.1,0,3.18,3.18,0,0,0-2.39-2.39,0.58,0.58,0,0,1,0-1.1,3.18,3.18,0,0,0,2.39-2.39,0.58,0.58,0,0,1,1.1,0A3.18,3.18,0,0,0,80.21,59,0.58,0.58,0,0,1,80.21,60.14Z"/></svg>