<?xml version="1.0" encoding="utf-8"?>
<!-- Generator: Adobe Illustrator 19.2.0, SVG Export Plug-In . SVG Version: 6.00 Build 0)  -->
<svg version="1.1" id="content" xmlns="http://www.w3.org/2000/svg" xmlns:xlink="http://www.w3.org/1999/xlink" x="0px" y="0px"
	 viewBox="0 0 117 117" style="enable-background:new 0 0 117 117;" xml:space="preserve">
<style type="text/css">
	.st0{fill:#FFFBF5;}
</style>
<title>ie_proto-comp</title>
<g>
	<g>
		<g>
			<path class="st0" d="M66.3,72.6c-13.6,0.1-24.8-10.8-24.9-24.5c0-3.2,0.6-6.5,1.9-9.5c0.4-0.9-0.1-2-1-2.3c-0.5-0.2-1-0.2-1.4,0
				c-12.2,5.8-17.4,20.5-11.6,32.7s20.5,17.4,32.7,11.6c2.2-1.1,4.3-2.5,6.1-4.2c0.9-0.8,0.9-2.3,0.1-3.2c-0.4-0.5-1-0.7-1.7-0.7
				H66.3z"/>
			<g>
				<path class="st0" d="M89.6,38.6c-1.3,0.3-2.4,1.4-2.7,2.7c-0.1,0.4-0.5,0.6-0.9,0.5c-0.2-0.1-0.4-0.3-0.5-0.5
					c-0.3-1.3-1.4-2.4-2.7-2.7c-0.4-0.1-0.6-0.5-0.5-0.9c0.1-0.2,0.3-0.4,0.5-0.5c1.3-0.3,2.4-1.4,2.7-2.7c0.1-0.4,0.5-0.6,0.9-0.5
					c0.2,0.1,0.4,0.3,0.5,0.5c0.3,1.3,1.4,2.4,2.7,2.7c0.4,0.1,0.6,0.5,0.5,0.9C90,38.4,89.9,38.6,89.6,38.6z"/>
				<path class="st0" d="M89.6,38.6c-1.3,0.3-2.4,1.4-2.7,2.7c-0.1,0.4-0.5,0.6-0.9,0.5c-0.2-0.1-0.4-0.3-0.5-0.5
					c-0.3-1.3-1.4-2.4-2.7-2.7c-0.4-0.1-0.6-0.5-0.5-0.9c0.1-0.2,0.3-0.4,0.5-0.5c1.3-0.3,2.4-1.4,2.7-2.7c0.1-0.4,0.5-0.6,0.9-0.5
					c0.2,0.1,0.4,0.3,0.5,0.5c0.3,1.3,1.4,2.4,2.7,2.7c0.4,0.1,0.6,0.5,0.5,0.9C90,38.4,89.9,38.6,89.6,38.6z"/>
			</g>
			<g>
				<path class="st0" d="M62.6,42.3c-2.1,0.4-3.7,2-4.1,4.1c-0.1,0.4-0.5,0.6-1,0.5c-0.3-0.1-0.5-0.3-0.5-0.5
					c-0.4-2.1-2-3.7-4.1-4.1c-0.4-0.1-0.6-0.5-0.5-1c0.1-0.3,0.3-0.5,0.5-0.5c2.1-0.4,3.7-2,4.1-4.1c0.1-0.4,0.5-0.6,1-0.5
					c0.3,0.1,0.5,0.3,0.5,0.5c0.4,2.1,2,3.7,4.1,4.1c0.4,0.1,0.6,0.5,0.5,1C63.1,42.1,62.9,42.3,62.6,42.3z"/>
				<path class="st0" d="M62.6,42.3c-2.1,0.4-3.7,2-4.1,4.1c-0.1,0.4-0.5,0.6-1,0.5c-0.3-0.1-0.5-0.3-0.5-0.5
					c-0.4-2.1-2-3.7-4.1-4.1c-0.4-0.1-0.6-0.5-0.5-1c0.1-0.3,0.3-0.5,0.5-0.5c2.1-0.4,3.7-2,4.1-4.1c0.1-0.4,0.5-0.6,1-0.5
					c0.3,0.1,0.5,0.3,0.5,0.5c0.4,2.1,2,3.7,4.1,4.1c0.4,0.1,0.6,0.5,0.5,1C63.1,42.1,62.9,42.3,62.6,42.3z"/>
			</g>
			<g>
				<path class="st0" d="M80.2,60.1c-1.2,0.3-2.1,1.2-2.4,2.4c-0.1,0.3-0.4,0.5-0.7,0.4c-0.2-0.1-0.3-0.2-0.4-0.4
					c-0.3-1.2-1.2-2.1-2.4-2.4C74,60,73.9,59.7,74,59.4c0.1-0.2,0.2-0.3,0.4-0.4c1.2-0.3,2.1-1.2,2.4-2.4c0.1-0.3,0.4-0.5,0.7-0.4
					c0.2,0.1,0.3,0.2,0.4,0.4c0.3,1.2,1.2,2.1,2.4,2.3c0.3,0.1,0.5,0.4,0.5,0.7C80.6,59.9,80.4,60.1,80.2,60.1z"/>
				<path class="st0" d="M80.2,60.1c-1.2,0.3-2.1,1.2-2.4,2.4c-0.1,0.3-0.4,0.5-0.7,0.4c-0.2-0.1-0.3-0.2-0.4-0.4
					c-0.3-1.2-1.2-2.1-2.4-2.4C74,60,73.9,59.7,74,59.4c0.1-0.2,0.2-0.3,0.4-0.4c1.2-0.3,2.1-1.2,2.4-2.4c0.1-0.3,0.4-0.5,0.7-0.4
					c0.2,0.1,0.3,0.2,0.4,0.4c0.3,1.2,1.2,2.1,2.4,2.3c0.3,0.1,0.5,0.4,0.5,0.7C80.6,59.9,80.4,60.1,80.2,60.1z"/>
			</g>
		</g>
	</g>
</g>
</svg>
