<svg id="content" xmlns="http://www.w3.org/2000/svg" xmlns:xlink="http://www.w3.org/1999/xlink" viewBox="0 0 38 32"><defs><style>.cls-1{fill:none;}.cls-2{clip-path:url(#clip-path);}.cls-3{clip-path:url(#clip-path-2);}.cls-4{fill:#fffbf5;}</style><clipPath id="clip-path"><rect class="cls-1" x="210.3" y="241.51" width="1050.16" height="635.8"/></clipPath><clipPath id="clip-path-2"><rect class="cls-1" x="-1.67" y="95.25" width="1450.75" height="846"/></clipPath></defs><title>ie_proto-comp</title><g class="cls-2"><g class="cls-3"><image width="2848" height="2848" transform="translate(-12.57 -176.47) scale(0.52)" xlink:href="ie_proto-comp1.png"/></g></g><path class="cls-4" d="M25.61,18.3a2.3,2.3,0,1,1,2.3-2.3A2.31,2.31,0,0,1,25.61,18.3Zm0-3.61a1.3,1.3,0,1,0,1.3,1.3A1.31,1.31,0,0,0,25.61,14.7Z"/><path class="cls-4" d="M19,18.3A2.3,2.3,0,1,1,21.3,16,2.31,2.31,0,0,1,19,18.3Zm0-3.61A1.3,1.3,0,1,0,20.3,16,1.31,1.31,0,0,0,19,14.7Z"/><path class="cls-4" d="M12.39,18.3a2.3,2.3,0,1,1,2.3-2.3A2.31,2.31,0,0,1,12.39,18.3Zm0-3.61a1.3,1.3,0,1,0,1.3,1.3A1.31,1.31,0,0,0,12.39,14.7Z"/></svg>