<svg id="background" xmlns="http://www.w3.org/2000/svg" viewBox="0 0 32 32"><defs><style>.cls-1{fill:#fffbf5;}</style></defs><title>ie_proto-comp</title><path class="cls-1" d="M31.9,13.86c0-1.36-1.74-4-2.28-4.84L28.79,7.8,28,9a25.93,25.93,0,0,0-1.43,2.39A8.23,8.23,0,0,0,20,10.12c-0.29-.47-0.54-0.86-0.7-1.09L18.48,7.8,17.65,9l-0.39.6A10,10,0,0,0,.45,16.89q0,0.3,0,.6c0,0.15,0,.3,0,0.45A5.87,5.87,0,0,0,6.31,23.8H20.65a3.09,3.09,0,0,0,6.06-.5,5.82,5.82,0,0,0,3.5-4.76l0-.12,0-.31c0-.05,0-0.1,0-0.15a5.79,5.79,0,0,0-.15-1.26A3.1,3.1,0,0,0,31.9,13.86Zm-3.1-2.4a8.36,8.36,0,0,1,1.1,2.4,1.1,1.1,0,1,1-2.21,0A8.38,8.38,0,0,1,28.79,11.46Zm-9.21,2.4a1.1,1.1,0,0,1-2.21,0,8.36,8.36,0,0,1,1.11-2.4A8.36,8.36,0,0,1,19.58,13.86Zm4.05,10.23a1.11,1.11,0,0,1-1.1-1.1,8.38,8.38,0,0,1,1.1-2.4,8.36,8.36,0,0,1,1.1,2.4A1.11,1.11,0,0,1,23.64,24.09Zm4.7-6h0a3.94,3.94,0,0,1-2,3.28,22.42,22.42,0,0,0-1.83-3.22l-0.83-1.23-0.83,1.23a19.74,19.74,0,0,0-2,3.75H6.31a4,4,0,0,1-3.94-4.39q0-.31,0-0.62a8.07,8.07,0,0,1,13.93-5.57,6.53,6.53,0,0,0-.89,2.54,3.1,3.1,0,0,0,6.21,0,5.25,5.25,0,0,0-.61-2,5.72,5.72,0,0,1,.79-0.06,6.48,6.48,0,0,1,4,1.4,2.68,2.68,0,0,0-.1.64,3.11,3.11,0,0,0,2.5,3,3.88,3.88,0,0,1,.15,1c0,0.05,0,.1,0,0.16h0Z"/></svg>