<svg id="content" xmlns="http://www.w3.org/2000/svg" xmlns:xlink="http://www.w3.org/1999/xlink" viewBox="0 0 50 50"><defs><style>.cls-1{fill:none;}.cls-2{clip-path:url(#clip-path);}.cls-3{clip-path:url(#clip-path-2);}.cls-4{fill:#fff;}</style><clipPath id="clip-path"><rect class="cls-1" x="-172.08" y="338.36" width="1050.16" height="635.8"/></clipPath><clipPath id="clip-path-2"><rect class="cls-1" x="-384.04" y="192.1" width="1450.75" height="846"/></clipPath></defs><title>ie_proto-comp</title><g class="cls-2"><g class="cls-3"><image width="2848" height="2848" transform="translate(-394.94 -79.62) scale(0.52)" xlink:href="ie_proto-comp1.png"/></g></g><path class="cls-4" d="M36.18,34.06A2.06,2.06,0,1,1,38.23,32,2.06,2.06,0,0,1,36.18,34.06Zm0-3.12A1.06,1.06,0,1,0,37.23,32,1.06,1.06,0,0,0,36.18,30.95Z"/><path class="cls-4" d="M30.46,34.06A2.06,2.06,0,1,1,32.52,32,2.06,2.06,0,0,1,30.46,34.06Zm0-3.12A1.06,1.06,0,1,0,31.52,32,1.06,1.06,0,0,0,30.46,30.95Z"/><path class="cls-4" d="M24.75,34.06A2.06,2.06,0,1,1,26.8,32,2.06,2.06,0,0,1,24.75,34.06Zm0-3.12A1.06,1.06,0,1,0,25.8,32,1.06,1.06,0,0,0,24.75,30.95Z"/><path class="cls-4" d="M24.22,16.94a4.39,4.39,0,0,1,1.44.24l-3,3,0.45,2.21,2.24,0.48,3-3a4.38,4.38,0,0,1-5.91,5.44l-7,7a1.57,1.57,0,0,1-2.23-2.23l7-7a4.38,4.38,0,0,1,4-6.15M14.37,31.8a0.64,0.64,0,1,0-.45-0.19,0.64,0.64,0,0,0,.45.19m9.85-15.86h0a5.34,5.34,0,0,0-3.8,1.57,5.42,5.42,0,0,0-1.36,5.32l-6.54,6.54A2.57,2.57,0,0,0,16.16,33l6.54-6.54a5.38,5.38,0,0,0,6.59-6.93L28.77,18l-1.13,1.13L25,21.78,24,21.55l-0.21-1,2.62-2.62,1.13-1.13L26,16.23a5.37,5.37,0,0,0-1.77-.3h0Z"/></svg>