<svg id="background" xmlns="http://www.w3.org/2000/svg" viewBox="0 0 32 32"><defs><style>.cls-1{fill:#fffbf5;}</style></defs><title>ie_proto-comp</title><path class="cls-1" d="M16,23.84H15.78A7.83,7.83,0,1,1,16,23.84Zm0-13.67a5.84,5.84,0,1,0,.17,0H16Z"/><path class="cls-1" d="M11.74,30.76a1.62,1.62,0,0,1-.51-0.08c-1.28-.42-1.45-2-1.62-3.56a7.76,7.76,0,0,0-.34-1.86,7.55,7.55,0,0,0-1.9.25c-1.51.31-3.07,0.64-3.86-.44s0-2.45.77-3.78a7.61,7.61,0,0,0,.83-1.75,7.85,7.85,0,0,0-1.64-.88C2,18,.57,17.36.57,16S2,14,3.48,13.33a7.85,7.85,0,0,0,1.64-.88,7.61,7.61,0,0,0-.83-1.75C3.53,9.38,2.74,8,3.52,6.93s2.35-.75,3.86-0.44a7.55,7.55,0,0,0,1.9.25,7.71,7.71,0,0,0,.34-1.86c0.17-1.54.34-3.14,1.62-3.56s2.3,0.76,3.32,1.88A6.42,6.42,0,0,0,16,4.58a8.61,8.61,0,0,0,1.41-1.37c1-1.12,2.09-2.29,3.32-1.88s1.45,2,1.62,3.56a7.71,7.71,0,0,0,.34,1.86,7.55,7.55,0,0,0,1.9-.25c1.51-.31,3.07-0.64,3.86.44s0,2.45-.77,3.78a7.62,7.62,0,0,0-.83,1.75,7.82,7.82,0,0,0,1.64.88C30,14,31.43,14.64,31.43,16S30,18,28.52,18.67a7.82,7.82,0,0,0-1.64.88,7.62,7.62,0,0,0,.83,1.75c0.76,1.33,1.54,2.71.77,3.78s-2.35.75-3.86,0.44a7.55,7.55,0,0,0-1.9-.25,7.7,7.7,0,0,0-.34,1.86c-0.17,1.54-.34,3.14-1.62,3.56s-2.3-.76-3.32-1.88A6.44,6.44,0,0,0,16,27.43a8.61,8.61,0,0,0-1.41,1.37C13.67,29.76,12.77,30.76,11.74,30.76ZM9.08,23.25a2.29,2.29,0,0,1,1.38.38c0.85,0.62,1,1.91,1.14,3.27a10.72,10.72,0,0,0,.28,1.74,11.18,11.18,0,0,0,1.19-1.19c0.95-1,1.84-2,2.93-2s2,1,2.92,2a11.18,11.18,0,0,0,1.2,1.19,10.84,10.84,0,0,0,.28-1.74c0.15-1.37.29-2.65,1.14-3.27s2.14-.36,3.49-0.08a11,11,0,0,0,1.72.27h0A11.05,11.05,0,0,0,26,22.28c-0.69-1.21-1.34-2.35-1-3.37s1.49-1.51,2.73-2.07A9.93,9.93,0,0,0,29.32,16a9.93,9.93,0,0,0-1.62-.84c-1.24-.56-2.41-1.08-2.73-2.07s0.32-2.16,1-3.37a11.05,11.05,0,0,0,.78-1.54h0A11,11,0,0,0,25,8.45c-1.35.28-2.63,0.55-3.49-.08s-1-1.91-1.14-3.27a10.82,10.82,0,0,0-.28-1.74,11.13,11.13,0,0,0-1.19,1.19c-0.95,1-1.84,2-2.93,2s-2-1-2.93-2a11.13,11.13,0,0,0-1.19-1.19A10.82,10.82,0,0,0,11.6,5.1c-0.15,1.37-.29,2.66-1.14,3.27S8.32,8.73,7,8.45a11,11,0,0,0-1.72-.27h0A11,11,0,0,0,6,9.72c0.69,1.21,1.34,2.35,1,3.37S5.54,14.6,4.3,15.16A9.9,9.9,0,0,0,2.68,16a9.9,9.9,0,0,0,1.62.84C5.54,17.4,6.71,17.93,7,18.92s-0.32,2.16-1,3.37a11,11,0,0,0-.78,1.54h0A11,11,0,0,0,7,23.55,10.92,10.92,0,0,1,9.08,23.25Z"/></svg>