<?xml version="1.0" encoding="utf-8"?>
<!-- Generator: Adobe Illustrator 19.2.0, SVG Export Plug-In . SVG Version: 6.00 Build 0)  -->
<svg version="1.1" id="content" xmlns="http://www.w3.org/2000/svg" xmlns:xlink="http://www.w3.org/1999/xlink" x="0px" y="0px"
	 viewBox="0 0 32 32" style="enable-background:new 0 0 32 32;" xml:space="preserve">
<style type="text/css">
	.st0{fill:#FFFBF5;}
</style>
<title>ie_proto-comp</title>
<g>
	<path class="st0" d="M16,23.8h-0.2c-4.3-0.1-7.8-3.6-7.7-7.9c0.1-4.3,3.6-7.8,7.9-7.7c4.3,0.1,7.8,3.6,7.7,7.9
		C23.7,20.4,20.2,23.8,16,23.8z M16,10.2c-3.2,0-5.8,2.7-5.8,5.9c0,3.2,2.7,5.8,5.9,5.8c3.2,0,5.8-2.7,5.8-5.9
		c0-3.2-2.6-5.7-5.8-5.8H16z"/>
	<path class="st0" d="M11.7,30.8c-0.2,0-0.3,0-0.5-0.1c-1.3-0.4-1.4-2-1.6-3.6c0-0.6-0.2-1.3-0.3-1.9c-0.6,0-1.3,0.1-1.9,0.3
		c-1.5,0.3-3.1,0.6-3.9-0.4s0-2.5,0.8-3.8c0.4-0.5,0.6-1.1,0.8-1.8c-0.5-0.4-1.1-0.7-1.6-0.9C2,18,0.6,17.4,0.6,16s1.4-2,2.9-2.7
		c0.6-0.2,1.1-0.5,1.6-0.9c-0.2-0.6-0.5-1.2-0.8-1.8C3.5,9.4,2.7,8,3.5,6.9s2.3-0.8,3.9-0.4C8,6.7,8.6,6.7,9.3,6.7
		c0.2-0.6,0.3-1.2,0.3-1.9c0.2-1.5,0.3-3.1,1.6-3.6s2.3,0.8,3.3,1.9c0.4,0.5,0.9,1,1.4,1.4c0.5-0.4,1-0.9,1.4-1.4
		c1-1.1,2.1-2.3,3.3-1.9s1.5,2,1.6,3.6c0,0.6,0.2,1.3,0.3,1.9c0.6,0,1.3-0.1,1.9-0.3c1.5-0.3,3.1-0.6,3.9,0.4s0,2.5-0.8,3.8
		c-0.3,0.5-0.6,1.1-0.8,1.8c0.5,0.4,1.1,0.7,1.6,0.9c1.5,0.6,2.9,1.3,2.9,2.6s-1.4,2-2.9,2.7c-0.6,0.2-1.1,0.5-1.6,0.9
		c0.2,0.6,0.5,1.2,0.8,1.8c0.8,1.3,1.5,2.7,0.8,3.8s-2.4,0.8-3.9,0.4c-0.6-0.2-1.3-0.2-1.9-0.3c-0.2,0.6-0.3,1.2-0.3,1.9
		c-0.2,1.5-0.3,3.1-1.6,3.6s-2.3-0.8-3.3-1.9c-0.4-0.5-0.9-1-1.4-1.4c-0.5,0.4-1,0.9-1.4,1.4C13.7,29.8,12.8,30.8,11.7,30.8z
		 M9.1,23.3c0.5,0,1,0.1,1.4,0.4c0.9,0.6,1,1.9,1.1,3.3c0,0.6,0.1,1.2,0.3,1.7c0.4-0.4,0.8-0.8,1.2-1.2c0.9-1,1.8-2,2.9-2s2,1,2.9,2
		c0.4,0.4,0.8,0.8,1.2,1.2c0.1-0.6,0.2-1.2,0.3-1.7c0.1-1.4,0.3-2.6,1.1-3.3s2.1-0.4,3.5-0.1c0.6,0.1,1.1,0.2,1.7,0.3l0,0
		c-0.2-0.5-0.5-1-0.8-1.5c-0.7-1.2-1.3-2.4-1-3.4s1.5-1.5,2.7-2.1c0.6-0.2,1.1-0.5,1.6-0.8c-0.5-0.3-1.1-0.6-1.6-0.8
		c-1.2-0.6-2.4-1.1-2.7-2.1s0.3-2.2,1-3.4c0.3-0.5,0.6-1,0.8-1.5l0,0c-0.6,0-1.2,0.1-1.8,0.3c-1.4,0.3-2.6,0.6-3.5-0.1
		s-1-1.9-1.1-3.3c0-0.6-0.1-1.2-0.3-1.7c-0.4,0.4-0.8,0.8-1.2,1.2c-1,1-1.8,2-2.9,2s-2-1-2.9-2c-0.4-0.4-0.8-0.8-1.2-1.2
		c-0.1,0.6-0.2,1.2-0.2,1.7c-0.1,1.4-0.3,2.7-1.1,3.3S8.3,8.7,7,8.4C6.4,8.3,5.9,8.2,5.3,8.2l0,0c0.2,0.5,0.4,1,0.7,1.5
		c0.7,1.2,1.3,2.3,1,3.4s-1.5,1.5-2.7,2.1c-0.6,0.2-1.1,0.5-1.6,0.8c0.5,0.3,1.1,0.6,1.6,0.8c1.2,0.6,2.4,1.1,2.7,2.1
		s-0.3,2.2-1,3.4c-0.3,0.5-0.6,1-0.8,1.5l0,0c0.6,0,1.2-0.1,1.8-0.3C7.7,23.4,8.4,23.3,9.1,23.3z"/>
</g>
</svg>
