<svg id="background" xmlns="http://www.w3.org/2000/svg" viewBox="0 0 32 32"><defs><style>.cls-1{fill:#fffbf5;}</style></defs><title>ie_proto-comp</title><path class="cls-1" d="M28.54,16.65a3.07,3.07,0,0,1-3.06-3.06c0-1.34,1.71-4,2.23-4.75l0.83-1.23,0.83,1.23c0.52,0.78,2.24,3.41,2.24,4.75A3.07,3.07,0,0,1,28.54,16.65Zm0-5.38a8.13,8.13,0,0,0-1.06,2.31,1.06,1.06,0,0,0,2.13,0A8.09,8.09,0,0,0,28.54,11.27Z"/><path class="cls-1" d="M23.48,25.59a3.07,3.07,0,0,1-3.06-3.06c0-1.34,1.71-4,2.24-4.75l0.83-1.23,0.83,1.23c0.52,0.78,2.23,3.41,2.23,4.75A3.07,3.07,0,0,1,23.48,25.59Zm0-5.38a8.11,8.11,0,0,0-1.06,2.31,1.06,1.06,0,0,0,2.13,0A8.12,8.12,0,0,0,23.48,20.22Z"/><path class="cls-1" d="M10.93,10.43a9.78,9.78,0,0,1-.2,1.29c-0.08.42-.21,0.83-0.31,1.24a21.65,21.65,0,0,1-.86,2.36L8.74,14c0.73,0,1.46,0,2.19,0l1.36,0.06-0.51,1.18a21.38,21.38,0,0,1-1.16,2.28c-0.23.37-.45,0.74-0.7,1.09a9.86,9.86,0,0,1-.82,1,9.86,9.86,0,0,1,.1-1.33c0-.44.14-0.86,0.22-1.28a21.37,21.37,0,0,1,.68-2.46l0.84,1.23c-0.73,0-1.46,0-2.19,0l-1.48-.07,0.67-1.22a21.63,21.63,0,0,1,1.32-2.13c0.26-.34.5-0.68,0.78-1A9.81,9.81,0,0,1,10.93,10.43Z"/><path class="cls-1" d="M20.07,11.8a6.25,6.25,0,0,1,6.43,2,2,2,0,0,1,0-.23,4.89,4.89,0,0,1,.63-1.79,8.22,8.22,0,0,0-8-1.67C19.39,10.59,19.76,11.2,20.07,11.8Z"/><path class="cls-1" d="M21.42,22.53a3.09,3.09,0,0,1,.29-1.06H6.5a3.88,3.88,0,0,1-3.86-4.31c0-.2,0-0.4,0-0.61a7.93,7.93,0,0,1,14.46-4.49c0.3-.61.67-1.26,1-1.76A9.78,9.78,0,0,0,.76,16.55q0,0.29,0,.58c0,0.15,0,.3,0,0.44A5.75,5.75,0,0,0,6.5,23.32H21.58A2.05,2.05,0,0,1,21.42,22.53Z"/><path class="cls-1" d="M30,17.58a5.68,5.68,0,0,0-.44-2.19,2,2,0,0,1-2,0,6.39,6.39,0,0,1,.28.69,3.85,3.85,0,0,1,.32,1.54c0,0.05,0,.1,0,0.15h0a3.89,3.89,0,0,1-2.9,3.59,3.42,3.42,0,0,1,.35,1.21,2,2,0,0,1-.12.65,5.72,5.72,0,0,0,4.49-5L30,18l0-.32S30,17.63,30,17.58Z"/><path class="cls-1" d="M18.63,16.65a3.07,3.07,0,0,1-3.06-3.06c0-1.34,1.71-4,2.24-4.75l0.83-1.23,0.83,1.23C20,9.61,21.7,12.25,21.7,13.59A3.07,3.07,0,0,1,18.63,16.65Zm0-5.38a8.11,8.11,0,0,0-1.06,2.31,1.06,1.06,0,0,0,2.13,0A8.12,8.12,0,0,0,18.63,11.27Z"/></svg>