<?xml version="1.0" encoding="utf-8"?>
<!-- Generator: Adobe Illustrator 19.2.0, SVG Export Plug-In . SVG Version: 6.00 Build 0)  -->
<svg version="1.1" id="content" xmlns="http://www.w3.org/2000/svg" xmlns:xlink="http://www.w3.org/1999/xlink" x="0px" y="0px"
	 viewBox="0 0 32 32" style="enable-background:new 0 0 32 32;" xml:space="preserve">
<style type="text/css">
	.st0{fill:#FFFBF5;}
</style>
<title>ie_proto-comp</title>
<path class="st0" d="M28.5,16.6c-1.7,0-3.1-1.4-3.1-3.1c0-1.3,1.7-4,2.2-4.8l0.8-1.2l0.8,1.2c0.5,0.8,2.2,3.4,2.2,4.8
	C31.6,15.3,30.2,16.7,28.5,16.6z M28.5,11.3c-0.5,0.7-0.8,1.5-1.1,2.3c0,0.6,0.5,1.1,1.1,1.1c0.6,0,1.1-0.5,1.1-1.1
	C29.4,12.8,29,12,28.5,11.3z"/>
<path class="st0" d="M23.5,25.6c-1.7,0-3.1-1.4-3.1-3.1c0-1.3,1.7-4,2.2-4.8l0.8-1.2l0.8,1.2c0.5,0.8,2.2,3.4,2.2,4.8
	C26.5,24.2,25.2,25.6,23.5,25.6z M23.5,20.2c-0.5,0.7-0.8,1.5-1.1,2.3c0,0.6,0.5,1.1,1.1,1.1c0.6,0,1.1-0.5,1.1-1.1
	C24.3,21.7,24,20.9,23.5,20.2L23.5,20.2z"/>
<path class="st0" d="M10.9,10.4c0,0.4-0.1,0.9-0.2,1.3c-0.1,0.4-0.2,0.8-0.3,1.2c-0.2,0.8-0.5,1.6-0.9,2.4L8.7,14c0.7,0,1.5,0,2.2,0
	l1.4,0.1l-0.5,1.2c-0.3,0.8-0.7,1.5-1.2,2.3c-0.2,0.4-0.4,0.7-0.7,1.1c-0.3,0.4-0.5,0.7-0.8,1c0-0.4,0-0.9,0.1-1.3
	c0-0.4,0.1-0.9,0.2-1.3c0.2-0.8,0.4-1.7,0.7-2.5l0.8,1.2c-0.7,0-1.5,0-2.2,0l-1.5-0.1l0.7-1.2c0.4-0.7,0.8-1.4,1.3-2.1
	c0.3-0.3,0.5-0.7,0.8-1C10.3,11,10.6,10.7,10.9,10.4z"/>
<g>
	<path class="st0" d="M20.1,11.8c2.3-0.6,4.9,0.1,6.4,2c0-0.1,0-0.2,0-0.2c0.1-0.6,0.3-1.2,0.6-1.8c-2.2-1.9-5.2-2.6-8-1.7
		C19.4,10.6,19.8,11.2,20.1,11.8z"/>
	<path class="st0" d="M21.4,22.5c0-0.4,0.1-0.7,0.3-1.1H6.5c-2.1,0-3.9-1.7-3.9-3.9c0-0.1,0-0.3,0-0.4c0-0.2,0-0.4,0-0.6
		c0-4.4,3.6-7.9,7.9-7.9c2.6,0,5,1.3,6.5,3.4c0.3-0.6,0.7-1.3,1-1.8C14.7,6.1,8.5,5.5,4.3,8.9c-2.3,1.9-3.6,4.7-3.6,7.6
		c0,0.2,0,0.4,0,0.6c0,0.1,0,0.3,0,0.4c0,3.2,2.6,5.7,5.7,5.8h15.1C21.5,23.1,21.4,22.8,21.4,22.5z"/>
	<path class="st0" d="M30,17.6c0-0.8-0.1-1.5-0.4-2.2c-0.6,0.4-1.4,0.4-2,0c0.1,0.2,0.2,0.5,0.3,0.7c0.2,0.5,0.3,1,0.3,1.5
		c0,0,0,0.1,0,0.1l0,0c-0.1,1.7-1.3,3.2-2.9,3.6c0.2,0.4,0.3,0.8,0.4,1.2c0,0.2,0,0.4-0.1,0.6c2.4-0.5,4.2-2.5,4.5-5l0-0.2v-0.3
		C30,17.7,30,17.6,30,17.6z"/>
</g>
<path class="st0" d="M18.6,16.6c-1.7,0-3.1-1.4-3.1-3.1c0-1.3,1.7-4,2.2-4.8l0.8-1.2l0.8,1.2c0.5,0.8,2.2,3.4,2.2,4.8
	C21.7,15.3,20.3,16.7,18.6,16.6z M18.6,11.3c-0.5,0.7-0.8,1.5-1.1,2.3c0,0.6,0.5,1.1,1.1,1.1s1.1-0.5,1.1-1.1
	C19.5,12.8,19.1,12,18.6,11.3z"/>
</svg>
