<?xml version="1.0" encoding="utf-8"?>
<!-- Generator: Adobe Illustrator 19.2.0, SVG Export Plug-In . SVG Version: 6.00 Build 0)  -->
<svg version="1.1" id="content" xmlns="http://www.w3.org/2000/svg" xmlns:xlink="http://www.w3.org/1999/xlink" x="0px" y="0px"
	 viewBox="0 0 50 50" style="enable-background:new 0 0 50 50;" xml:space="preserve">
<style type="text/css">
	.st0{fill:#FFFFFF;}
</style>
<title>ie_proto-comp</title>
<g>
	<g>
		<g>
			<path class="st0" d="M32.4,22.5H17.6c-1.6,0-2.9-1.3-2.9-2.9c0-1.6,1.3-2.9,2.9-2.9h14.9c1.6,0,2.9,1.3,2.9,2.9
				C35.3,21.2,34,22.5,32.4,22.5z M17.6,17.6c-1.1,0-1.9,0.9-1.9,1.9s0.9,1.9,1.9,1.9h14.9c1.1,0,1.9-0.9,1.9-1.9s-0.9-1.9-1.9-1.9
				H17.6z"/>
			<path class="st0" d="M31.1,36.4H18.9c-0.9,0-1.7-0.8-1.7-1.7V23.9h1v10.8c0,0.4,0.3,0.7,0.7,0.7h12.1c0.4,0,0.7-0.3,0.7-0.7V23.9
				h1v10.8C32.8,35.6,32,36.4,31.1,36.4z"/>
			<path class="st0" d="M30.9,17.1h-1v-1.4c0-0.6-0.5-1.1-1.1-1.1h-7.5c-0.6,0-1.1,0.5-1.1,1.1v1.4h-1v-1.4c0-1.2,1-2.1,2.1-2.1h7.5
				c1.2,0,2.1,1,2.1,2.1C30.9,15.8,30.9,17.1,30.9,17.1z"/>
		</g>
	</g>
</g>
</svg>
