<svg id="content" xmlns="http://www.w3.org/2000/svg" xmlns:xlink="http://www.w3.org/1999/xlink" viewBox="0 0 50 50"><defs><style>.cls-1{fill:none;}.cls-2{clip-path:url(#clip-path);}.cls-3{clip-path:url(#clip-path-2);}.cls-4{fill:#fff;}</style><clipPath id="clip-path"><rect class="cls-1" x="80.67" y="381.45" width="1050.16" height="635.8"/></clipPath><clipPath id="clip-path-2"><rect class="cls-1" x="-131.29" y="235.2" width="1450.75" height="846"/></clipPath></defs><title>ie_proto-comp</title><g class="cls-2"><g class="cls-3"><image width="2848" height="2848" transform="translate(-142.19 -36.53) scale(0.52)" xlink:href="ie_proto-comp1.png"/></g></g><path class="cls-4" d="M32.43,22.49H17.57a2.92,2.92,0,0,1,0-5.84H32.43A2.92,2.92,0,0,1,32.43,22.49ZM17.57,17.65a1.92,1.92,0,0,0,0,3.84H32.43a1.92,1.92,0,0,0,0-3.84H17.57Z"/><path class="cls-4" d="M31.07,36.39H18.93a1.7,1.7,0,0,1-1.69-1.69V23.92h1V34.7a0.69,0.69,0,0,0,.69.69H31.07a0.69,0.69,0,0,0,.69-0.69V23.92h1V34.7A1.7,1.7,0,0,1,31.07,36.39Z"/><path class="cls-4" d="M30.9,17.15h-1v-1.4a1.14,1.14,0,0,0-1.13-1.13H21.23a1.14,1.14,0,0,0-1.13,1.13v1.4h-1v-1.4a2.14,2.14,0,0,1,2.13-2.13h7.54a2.14,2.14,0,0,1,2.13,2.13v1.4Z"/></svg>