<?xml version="1.0" encoding="utf-8"?>
<!-- Generator: Adobe Illustrator 19.2.0, SVG Export Plug-In . SVG Version: 6.00 Build 0)  -->
<svg version="1.1" id="content" xmlns="http://www.w3.org/2000/svg" xmlns:xlink="http://www.w3.org/1999/xlink" x="0px" y="0px"
	 viewBox="0 0 32 32" style="enable-background:new 0 0 32 32;" xml:space="preserve">
<style type="text/css">
	.st0{fill:#FFFBF5;}
</style>
<title>ie_proto-comp</title>
<path class="st0" d="M16,22.4c-2.4,0-4.4-2-4.4-4.4c0-2.2,3.6-7.6,4-8.2L16,9.2l0.4,0.6c0.4,0.6,4,5.9,4,8.2
	C20.4,20.4,18.4,22.4,16,22.4C16,22.4,16,22.4,16,22.4z M16,11c-1.2,1.9-3.4,5.5-3.4,7c0,1.9,1.5,3.4,3.4,3.4c1.9,0,3.4-1.5,3.4-3.4
	c0,0,0,0,0,0C19.4,16.6,17.2,12.9,16,11z"/>
</svg>
